<?xml version="1.0" encoding="utf-8"?>
<!-- Generator: Adobe Illustrator 25.2.0, SVG Export Plug-In . SVG Version: 6.00 Build 0)  -->
<svg version="1.1" id="Layer_1" xmlns="http://www.w3.org/2000/svg" xmlns:xlink="http://www.w3.org/1999/xlink" x="0px" y="0px"
	 viewBox="0 0 106 100" style="enable-background:new 0 0 106 100;" xml:space="preserve">
<style type="text/css">
	.st0{fill-rule:evenodd;clip-rule:evenodd;fill:#E47B02;}
	.st1{clip-path:url(#SVGID_2_);}
	.st2{fill:#39485D;}
	.st3{fill:#151515;}
	.st4{fill:#FFFFFF;stroke:#151515;}
	.st5{fill-rule:evenodd;clip-rule:evenodd;fill:#39485D;}
	.st6{fill:none;stroke:#151515;}
</style>
<path class="st0" d="M47.9,1.3C61,0.6,75-2.7,85.7,5c11.9,8.6,20.3,23,19.3,37.6c-1,14-14.4,22.5-24.3,32.5
	c-10,10.1-18.4,24.6-32.7,24.9c-14.4,0.3-25.1-12.4-34.1-23.5C5.8,66.8,0.9,55.1,1,42.6C1.1,30.1,4.7,17.3,14.1,9
	C23.1,1.1,35.9,2,47.9,1.3z"/>
<g>
	<defs>
		<rect id="SVGID_1_" x="11" width="95" height="95"/>
	</defs>
	<clipPath id="SVGID_2_">
		<use xlink:href="#SVGID_1_"  style="overflow:visible;"/>
	</clipPath>
	<g class="st1">
		<path class="st2" d="M14.7,29.1h26.7c1.7,0,3,1.3,3,3v6.7c0,1.7-1.3,3-3,3H14.7c-1.7,0-3-1.3-3-3v-6.7
			C11.7,30.4,13,29.1,14.7,29.1z"/>
		<path class="st3" d="M66.1,54.7l3.9-3.9l12.2,12.2l-3.9,3.9L66.1,54.7z"/>
		<path class="st2" d="M73.1,65.6c-1.1-1.1-1.1-2.8,0-3.9l3.9-3.9c1.1-1.1,2.8-1.1,3.9,0l22.5,22.5c1.1,1.1,1.1,2.8,0,3.9l-3.9,3.9
			c-1.1,1.1-2.8,1.1-3.9,0L73.1,65.6z"/>
		<path class="st4" d="M69.9,16.2c10.6,10.6,10.6,27.9,0,38.5c-10.6,10.6-27.9,10.6-38.5,0c-10.6-10.6-10.6-27.9,0-38.5
			C42.1,5.6,59.3,5.6,69.9,16.2z"/>
		<path class="st5" d="M34,24.4h19.4c1.7,0,3,1.3,3,3v15.8c0,1.7-1.3,3-3,3H33.8C29.6,39.6,29.7,31,34,24.4z"/>
		<path class="st6" d="M64.8,21.3c7.8,7.8,7.8,20.4,0,28.2c-7.8,7.8-20.4,7.8-28.2,0c-7.8-7.8-7.8-20.4,0-28.2
			C44.4,13.5,57,13.5,64.8,21.3z"/>
	</g>
</g>
</svg>
