<?xml version="1.0" encoding="utf-8"?>
<!-- Generator: Adobe Illustrator 25.2.0, SVG Export Plug-In . SVG Version: 6.00 Build 0)  -->
<svg version="1.1" id="Layer_1" xmlns="http://www.w3.org/2000/svg" xmlns:xlink="http://www.w3.org/1999/xlink" x="0px" y="0px"
	 viewBox="0 0 106 100" style="enable-background:new 0 0 106 100;" xml:space="preserve">
<style type="text/css">
	.st0{fill-rule:evenodd;clip-rule:evenodd;fill:#E47B02;}
	.st1{fill-rule:evenodd;clip-rule:evenodd;fill:#39485D;}
	.st2{fill:#FFFFFF;}
	.st3{fill:none;stroke:#FFFFFF;stroke-linecap:round;}
	.st4{fill-rule:evenodd;clip-rule:evenodd;fill:#FFFFFF;}
	.st5{fill:none;stroke:#39485D;stroke-linecap:round;}
</style>
<path class="st0" d="M1.9,69.5c-3.5-13.1,3.9-25.9,10.8-37.7C20,19.4,27.5,5.9,41.5,1.7C56-2.7,72,1.8,84.1,10.4
	C95.5,18.5,100,32,103,45.4c3,13.1,5.8,27.8-2.2,38.8C93.1,95,78.1,96.1,64.9,98.4c-12,2-23.9,3-34.9-2.1
	C17.7,90.7,5.4,82.4,1.9,69.5z"/>
<path class="st1" d="M53,21c-2.2,0-4,1.8-4,4v24c0,2.2,1.8,4,4,4h40l5.3,5.3c0.6,0.6,1.7,0.2,1.7-0.7V49v-0.2V25c0-2.2-1.8-4-4-4H53
	z"/>
<path class="st2" d="M93,53l0.4-0.4l-0.1-0.1H93V53z M49.5,25c0-1.9,1.6-3.5,3.5-3.5v-1c-2.5,0-4.5,2-4.5,4.5H49.5z M49.5,49V25h-1
	v24H49.5z M53,52.5c-1.9,0-3.5-1.6-3.5-3.5h-1c0,2.5,2,4.5,4.5,4.5V52.5z M93,52.5H53v1h40V52.5z M98.6,57.9l-5.3-5.3l-0.7,0.7
	l5.3,5.3L98.6,57.9z M99.5,57.6c0,0.4-0.5,0.7-0.9,0.4l-0.7,0.7c0.9,0.9,2.6,0.3,2.6-1.1H99.5z M99.5,49v8.6h1V49H99.5z M99.5,48.8
	V49h1v-0.2H99.5z M99.5,25v23.8h1V25H99.5z M96,21.5c1.9,0,3.5,1.6,3.5,3.5h1c0-2.5-2-4.5-4.5-4.5V21.5z M53,21.5h43v-1H53V21.5z"/>
<line class="st3" x1="57.5" y1="29.5" x2="91.5" y2="29.5"/>
<line class="st3" x1="57.5" y1="36.5" x2="91.5" y2="36.5"/>
<line class="st3" x1="64.5" y1="44.5" x2="91.5" y2="44.5"/>
<path class="st4" d="M54,42c2.2,0,4,1.8,4,4v24c0,2.2-1.8,4-4,4H14l-5.3,5.3C8.1,79.9,7,79.5,7,78.6V70c0,0,0,0,0,0v-0.2V46
	c0-2.2,1.8-4,4-4H54z"/>
<path class="st5" d="M14,74l-0.4-0.4l0.1-0.1H14V74z M7,70H6.5l0,0H7z M7,69.8h0.5l0,0H7z M7,46H6.5H7z M57.5,46
	c0-1.9-1.6-3.5-3.5-3.5v-1c2.5,0,4.5,2,4.5,4.5H57.5z M57.5,70V46h1v24H57.5z M54,73.5c1.9,0,3.5-1.6,3.5-3.5h1c0,2.5-2,4.5-4.5,4.5
	V73.5z M14,73.5h40v1H14V73.5z M8.4,78.9l5.3-5.3l0.7,0.7l-5.3,5.3L8.4,78.9z M7.5,78.6c0,0.4,0.5,0.7,0.9,0.4l0.7,0.7
	c-0.9,0.9-2.6,0.3-2.6-1.1H7.5z M7.5,70v8.6h-1V70H7.5z M7.5,70C7.5,70,7.5,70,7.5,70C7.5,70,7.5,70,7.5,70l-1,0c0,0,0,0,0,0
	c0,0,0,0,0,0H7.5z M7.5,69.8V70h-1v-0.2H7.5z M7.5,46v23.8h-1V46H7.5z M11,42.5c-1.9,0-3.5,1.6-3.5,3.5h-1c0-2.5,2-4.5,4.5-4.5V42.5
	z M54,42.5H11v-1h43V42.5z"/>
<line class="st5" x1="15.5" y1="50.5" x2="49.5" y2="50.5"/>
<line class="st5" x1="15.5" y1="57.5" x2="49.5" y2="57.5"/>
<line class="st5" x1="15.5" y1="65.5" x2="49.5" y2="65.5"/>
</svg>
