<?xml version="1.0" encoding="utf-8"?>
<!-- Generator: Adobe Illustrator 25.2.0, SVG Export Plug-In . SVG Version: 6.00 Build 0)  -->
<svg version="1.1" id="Layer_1" xmlns="http://www.w3.org/2000/svg" xmlns:xlink="http://www.w3.org/1999/xlink" x="0px" y="0px"
	 viewBox="0 0 106 100" style="enable-background:new 0 0 106 100;" xml:space="preserve">
<style type="text/css">
	.st0{fill-rule:evenodd;clip-rule:evenodd;fill:#E47B02;}
	.st1{fill:#FFFFFF;stroke:#141414;}
	.st2{fill:none;stroke:#151515;}
	.st3{fill:none;stroke:#000000;stroke-linecap:round;}
	.st4{fill:none;stroke:#10102E;stroke-linecap:round;stroke-linejoin:round;}
	.st5{fill:#10102E;stroke:#151515;stroke-linejoin:round;}
</style>
<g>
	<path class="st0" d="M45.6,0.4c11.7,0.7,22.2,5,31.8,11.9C89.3,21,106.2,29.2,106,44C105.8,58.8,87.4,64.9,76.5,75
		c-10.1,9.4-17.2,23.4-30.9,25.2c-14.9,1.9-31-4.1-40.2-16C-3.3,73.2,0.9,58,1.7,44C2.4,31.3,0.6,17.1,9.6,8.1
		C18.7-0.9,32.9-0.4,45.6,0.4z"/>
	<path class="st1" d="M26,88h49c1.1,0,2-0.9,2-2V29.8c0-0.5-0.2-1-0.6-1.4L61.6,13.6c-0.4-0.4-0.9-0.6-1.4-0.6H26c-1.1,0-2,0.9-2,2
		v71C24,87.1,24.9,88,26,88z"/>
	<path class="st2" d="M77,29l-14.1,0c-1.1,0-1.9-0.9-1.9-1.9V13"/>
	<line class="st3" x1="33.5" y1="36.5" x2="67.5" y2="36.5"/>
	<line class="st3" x1="33.5" y1="43.5" x2="67.5" y2="43.5"/>
	<line class="st3" x1="33.5" y1="59.5" x2="67.5" y2="59.5"/>
	<line class="st3" x1="33.5" y1="76.5" x2="45.5" y2="76.5"/>
	<line class="st3" x1="33.5" y1="51.5" x2="67.5" y2="51.5"/>
	<path class="st4" d="M33.5,72c1.2-1.2,3.6-3.1,4-1.5c0.5,2,2-1,3,1c1,2,4-3,5.5-1c1,1.3,4.2,1.3,5,1"/>
	<path class="st5" d="M77.3,42.5l4.1,4.4L57.2,69.8l-6.2,1.7l2.1-6.1L77.3,42.5z"/>
</g>
</svg>
